<svg width="130" height="130" viewBox="0 0 130 130" fill="none" xmlns="http://www.w3.org/2000/svg">
<path fill-rule="evenodd" clip-rule="evenodd" d="M65 117C93.7188 117 117 93.7188 117 65C117 36.2812 93.7188 13 65 13C36.2812 13 13 36.2812 13 65C13 93.7188 36.2812 117 65 117ZM66 39C66 38.4477 65.5523 38 65 38C64.4477 38 64 38.4477 64 39V65C64 65.2652 64.1054 65.5196 64.2929 65.7071L82.6777 84.0919C83.0682 84.4824 83.7014 84.4824 84.0919 84.0919C84.4824 83.7014 84.4824 83.0682 84.0919 82.6777L66 64.5858V39Z" fill="#E0E0E0"/>
</svg>
